# xmcd
#
# Track frame offsets: 
#        151
#        18450
#        36012
#        52418
#        66358
#        83580
#        100272
#        114035
#        136856
#        148402
#        160728
#
# Disc length: 2293 seconds
#
# Revision: 0
# Processed by: cddbd v1.5PL3 Copyright (c) Steve Scherf et al.
# Submitted via: ExactAudioCopy v0.95a5
#
DISCID=9308f30b
DTITLE=Chris Hanlin - Solo Daddy
DYEAR=1900
DGENRE=Blues
TTITLE0=When I Lay My Burden Down
TTITLE1=Catfish Blues
TTITLE2=Must Jesus Bear the Cross Alone?
TTITLE3=Angel Laid Him Away
TTITLE4=Hobo BLues
TTITLE5=Bank of the Wabash
TTITLE6=Let Us Get Together
TTITLE7=Death Don't Have No Mercy
TTITLE8=Take Me Back
TTITLE9=Honest I Do
TTITLE10=God Will Take Care of You
EXTD=
EXTT0=
EXTT1=
EXTT2=
EXTT3=
EXTT4=
EXTT5=
EXTT6=
EXTT7=
EXTT8=
EXTT9=
EXTT10=
PLAYORDER=
